# xmcd
#
# Track frame offsets: 
#        150
#        18412
#        33250
#        49012
#        60218
#        73349
#        82957
#        98289
#        115233
#        134433
#        150691
#        163113
#        171163
#        190978
#        200203
#
# Disc length: 3170 seconds
#
# Revision: 1
# Processed by: cddbd v1.5.2PL0 Copyright (c) Steve Scherf et al.
# Submitted via: ExactAudioCopyFreeDBPlugin 1.0
#
DISCID=c50c600f
DTITLE=Voodoo Jürgens - S'Klane Glücksspiel
DYEAR=2019
DGENRE=
TTITLE0=S'Klane Glücksspiel
TTITLE1=Kumma ned
TTITLE2=Angst hams
TTITLE3=Wem gheard des Mensch?
TTITLE4=Eislaufplotz
TTITLE5=Rode Sporttaschn
TTITLE6=Taxler
TTITLE7=Ohrwaschlkrauler
TTITLE8=Eistee
TTITLE9=Ollas nimma deins
TTITLE10=Scheidungsleichn
TTITLE11=Grod aus
TTITLE12=Schworz wie Kindspech
TTITLE13=Fenstabrettl
TTITLE14=Heast do hob i scho gnua
EXTD=
EXTT0=
EXTT1=
EXTT2=
EXTT3=
EXTT4=
EXTT5=
EXTT6=
EXTT7=
EXTT8=
EXTT9=
EXTT10=
EXTT11=
EXTT12=
EXTT13=
EXTT14=
PLAYORDER=
